<svg width="22" height="19" viewBox="0 0 22 19" fill="none" xmlns="http://www.w3.org/2000/svg">
<path d="M20.9 10.4H1.1C0.808262 10.4 0.528473 10.2841 0.322182 10.0778C0.115893 9.87156 0 9.59172 0 9.3C0 9.00826 0.115893 8.72847 0.322182 8.52218C0.528473 8.3159 0.808262 8.2 1.1 8.2H20.9C21.1917 8.2 21.4716 8.3159 21.6778 8.52218C21.8841 8.72847 22 9.00826 22 9.3C22 9.59172 21.8841 9.87156 21.6778 10.0778C21.4716 10.2841 21.1917 10.4 20.9 10.4ZM20.9 2.7H1.1C0.808262 2.7 0.528473 2.5841 0.322182 2.37782C0.115893 2.17153 0 1.89174 0 1.6C0 1.30826 0.115893 1.02847 0.322182 0.822179C0.528473 0.615896 0.808262 0.5 1.1 0.5H20.9C21.1917 0.5 21.4716 0.615896 21.6778 0.822179C21.8841 1.02847 22 1.30826 22 1.6C22 1.89174 21.8841 2.17153 21.6778 2.37782C21.4716 2.5841 21.1917 2.7 20.9 2.7ZM20.9 18.1H1.1C0.808262 18.1 0.528473 17.9841 0.322182 17.7778C0.115893 17.5716 0 17.2917 0 17C0 16.7083 0.115893 16.4284 0.322182 16.2222C0.528473 16.0159 0.808262 15.9 1.1 15.9H20.9C21.1917 15.9 21.4716 16.0159 21.6778 16.2222C21.8841 16.4284 22 16.7083 22 17C22 17.2917 21.8841 17.5716 21.6778 17.7778C21.4716 17.9841 21.1917 18.1 20.9 18.1Z" fill="#031B07"/>
</svg>
