<svg width="135" height="30" viewBox="0 0 135 30" fill="none" xmlns="http://www.w3.org/2000/svg">
<path d="M21.5356 11.736L19.2857 5.86816H18.3212L8.99985 11.0841L9.32141 20.8639C7.28571 23.1458 4.24286 27.7097 8.35713 27.7097C12.4714 27.7097 17.1428 26.6231 18.6428 26.0798L20.2499 28.0357L23.4642 14.67L21.5356 11.736Z" fill="white"/>
<path d="M43.1673 18.4646V16.3764H46.5646V22.5192C44.9289 22.7861 43.602 22.9195 42.5839 22.9195C40.7652 22.9195 39.5126 22.4264 38.8263 21.4403C38.1514 20.4542 37.814 18.888 37.814 16.7418C37.814 14.5956 38.1686 13.0468 38.8778 12.0955C39.587 11.1442 40.7938 10.6685 42.4982 10.6685C43.562 10.6685 44.7116 10.7903 45.9469 11.034L46.5646 11.1558L46.496 13.0178C45.1234 12.867 43.9966 12.7915 43.1158 12.7915C42.2465 12.7915 41.6345 12.896 41.2799 13.1048C40.9253 13.3136 40.6622 13.7023 40.4906 14.2707C40.3305 14.8276 40.2504 15.7905 40.2504 17.1594C40.2504 18.5168 40.4163 19.4681 40.748 20.0134C41.0797 20.5586 41.7661 20.8312 42.807 20.8312L44.2311 20.7616V18.4646H43.1673Z" fill="#18BA33"/>
<path d="M49.0582 15.0016C49.6645 14.2011 50.6768 13.8009 52.0952 13.8009C53.5136 13.8009 54.526 14.2011 55.1322 15.0016C55.7385 15.7905 56.0416 16.9042 56.0416 18.3428C56.0416 21.3939 54.7261 22.9195 52.0952 22.9195C49.4643 22.9195 48.1488 21.3939 48.1488 18.3428C48.1488 16.9042 48.452 15.7905 49.0582 15.0016ZM50.8255 20.3092C51.0657 20.7268 51.489 20.9357 52.0952 20.9357C52.7015 20.9357 53.119 20.7268 53.3478 20.3092C53.588 19.8915 53.7081 19.2361 53.7081 18.3428C53.7081 17.4495 53.588 16.7998 53.3478 16.3938C53.119 15.9877 52.7015 15.7847 52.0952 15.7847C51.489 15.7847 51.0657 15.9877 50.8255 16.3938C50.5967 16.7998 50.4823 17.4495 50.4823 18.3428C50.4823 19.2361 50.5967 19.8915 50.8255 20.3092Z" fill="#18BA33"/>
<path d="M58.1903 15.0016C58.7965 14.2011 59.8088 13.8009 61.2273 13.8009C62.6457 13.8009 63.658 14.2011 64.2642 15.0016C64.8705 15.7905 65.1736 16.9042 65.1736 18.3428C65.1736 21.3939 63.8582 22.9195 61.2273 22.9195C58.5963 22.9195 57.2809 21.3939 57.2809 18.3428C57.2809 16.9042 57.584 15.7905 58.1903 15.0016ZM59.9575 20.3092C60.1978 20.7268 60.621 20.9357 61.2273 20.9357C61.8335 20.9357 62.251 20.7268 62.4798 20.3092C62.72 19.8915 62.8401 19.2361 62.8401 18.3428C62.8401 17.4495 62.72 16.7998 62.4798 16.3938C62.251 15.9877 61.8335 15.7847 61.2273 15.7847C60.621 15.7847 60.1978 15.9877 59.9575 16.3938C59.7288 16.7998 59.6144 17.4495 59.6144 18.3428C59.6144 19.2361 59.7288 19.8915 59.9575 20.3092Z" fill="#18BA33"/>
<path d="M74.1513 10.5293V22.7107H71.8692V22.3452C71.0685 22.7281 70.3765 22.9195 69.7931 22.9195C68.5462 22.9195 67.6769 22.554 67.185 21.8232C66.6932 21.0923 66.4472 19.9379 66.4472 18.3602C66.4472 16.7708 66.7389 15.6165 67.3223 14.8972C67.9171 14.1663 68.8093 13.8009 69.999 13.8009C70.365 13.8009 70.874 13.8589 71.5261 13.9749L71.8521 14.0445V10.5293H74.1513ZM71.6118 20.6224L71.8521 20.5702V15.9935C71.2229 15.8775 70.6624 15.8195 70.1706 15.8195C69.244 15.8195 68.7807 16.6548 68.7807 18.3254C68.7807 19.2303 68.8837 19.8741 69.0896 20.257C69.2955 20.6398 69.6329 20.8312 70.1019 20.8312C70.5824 20.8312 71.0857 20.7616 71.6118 20.6224Z" fill="#18BA33"/>
<path d="M77.9917 18.0991V22.7107H76.6706V10.6685H81.0631C82.3213 10.6685 83.265 10.9643 83.8942 11.556C84.5347 12.1477 84.855 13.07 84.855 14.3229C84.855 16.1791 84.1287 17.3451 82.6759 17.8207L84.958 22.7107H83.4995L81.3547 18.0991H77.9917ZM81.0802 16.9158C82.6931 16.9158 83.4995 16.0747 83.4995 14.3925C83.4995 12.6987 82.6874 11.8518 81.0631 11.8518H77.9917V16.9158H81.0802Z" fill="#18BA33"/>
<path d="M92.7035 21.6317L93.2011 21.5795L93.2355 22.6062C91.9314 22.7919 90.8161 22.8847 89.8896 22.8847C88.6542 22.8847 87.7791 22.525 87.2644 21.8058C86.7497 21.0749 86.4923 19.9437 86.4923 18.4124C86.4923 15.3612 87.6876 13.8357 90.0783 13.8357C91.2337 13.8357 92.0973 14.1663 92.6692 14.8276C93.2412 15.4773 93.5271 16.504 93.5271 17.9077L93.4585 18.8996H87.7963C87.7963 19.8625 87.9679 20.576 88.311 21.0401C88.6542 21.5041 89.249 21.7361 90.0955 21.7361C90.9534 21.7361 91.8228 21.7013 92.7035 21.6317ZM92.2403 17.8555C92.2403 16.7882 92.0687 16.0341 91.7255 15.5933C91.3938 15.1524 90.8447 14.932 90.0783 14.932C89.3234 14.932 88.7514 15.164 88.3625 15.6281C87.985 16.0921 87.7906 16.8346 87.7791 17.8555H92.2403Z" fill="#18BA33"/>
<path d="M94.5922 14.0097H95.9648L97.9723 21.5795H98.6072L100.683 14.0097H102.004L99.5852 22.7107H97.0115L94.5922 14.0097Z" fill="#18BA33"/>
<path d="M103.659 22.7107V14.0097H104.946V22.7107H103.659ZM103.659 12.0433V10.5293H104.946V12.0433H103.659Z" fill="#18BA33"/>
<path d="M113.246 21.6317L113.744 21.5795L113.778 22.6062C112.474 22.7919 111.359 22.8847 110.433 22.8847C109.197 22.8847 108.322 22.525 107.807 21.8058C107.293 21.0749 107.035 19.9437 107.035 18.4124C107.035 15.3612 108.231 13.8357 110.621 13.8357C111.777 13.8357 112.64 14.1663 113.212 14.8276C113.784 15.4773 114.07 16.504 114.07 17.9077L114.001 18.8996H108.339C108.339 19.8625 108.511 20.576 108.854 21.0401C109.197 21.5041 109.792 21.7361 110.638 21.7361C111.496 21.7361 112.366 21.7013 113.246 21.6317ZM112.783 17.8555C112.783 16.7882 112.612 16.0341 112.268 15.5933C111.937 15.1524 111.388 14.932 110.621 14.932C109.866 14.932 109.294 15.164 108.905 15.6281C108.528 16.0921 108.333 16.8346 108.322 17.8555H112.783Z" fill="#18BA33"/>
<path d="M115.288 14.0097H116.575L118.308 21.5795H118.583L120.624 14.1837H121.963L124.005 21.5795H124.296L126.012 14.0097H127.299L125.257 22.7107H123.112L121.294 15.9065L119.475 22.7107H117.33L115.288 14.0097Z" fill="#18BA33"/>
<path d="M131.688 15.0016C130.441 15.0016 129.818 15.4424 129.818 16.3241C129.818 16.7302 129.961 17.0202 130.247 17.1942C130.533 17.3567 131.185 17.5307 132.203 17.7163C133.221 17.8903 133.942 18.1397 134.365 18.4646C134.788 18.7894 135 19.3985 135 20.2918C135 21.1851 134.714 21.8406 134.142 22.2582C133.581 22.6759 132.758 22.8847 131.671 22.8847C130.962 22.8847 130.127 22.8035 129.166 22.6411L128.651 22.554L128.72 21.4229C130.024 21.6201 131.008 21.7187 131.671 21.7187C132.335 21.7187 132.838 21.6143 133.181 21.4055C133.536 21.1851 133.713 20.8254 133.713 20.3266C133.713 19.8161 133.564 19.4739 133.267 19.2999C132.969 19.1143 132.317 18.9402 131.311 18.7778C130.304 18.6154 129.589 18.3776 129.166 18.0643C128.743 17.7511 128.531 17.171 128.531 16.3241C128.531 15.4772 128.823 14.8508 129.406 14.4447C130.001 14.0387 130.739 13.8357 131.62 13.8357C132.317 13.8357 133.192 13.9169 134.245 14.0793L134.725 14.1663L134.691 15.28C133.421 15.0944 132.42 15.0016 131.688 15.0016Z" fill="#18BA33"/>
<path fill-rule="evenodd" clip-rule="evenodd" d="M22.3546 9.921L29.4868 10.0247C31.2653 10.1234 31.988 12.3303 30.6092 13.4387L24.7095 18.4905C24.0595 19.0471 23.7956 19.9329 24.0351 20.7545L26.0164 27.5516C26.4827 29.2257 24.6475 30.607 23.1355 29.719L17.1321 26.4786C17.6199 26.2969 18.0824 26.078 18.5194 25.8218C19.2884 25.398 19.9069 24.8555 20.375 24.1943C20.843 23.55 21.0771 22.7871 21.0771 21.9055C21.0938 21.0239 20.7845 20.3288 20.1493 19.8202C19.5141 19.3116 18.4777 19.0573 17.04 19.0573H15.5105C14.8251 19.0573 14.3069 19.0233 13.9559 18.9555C13.6048 18.8877 13.4293 18.7097 13.4293 18.4215C13.4293 18.235 13.4711 18.0739 13.5547 17.9383C13.655 17.8027 13.772 17.684 13.9057 17.5823L14.4574 17.6331H14.9839C16.1875 17.6331 17.2741 17.4212 18.2436 16.9974C19.2132 16.5735 19.9821 15.9547 20.5505 15.1409C21.1189 14.3271 21.403 13.3523 21.403 12.2164C21.403 11.8264 21.3612 11.4789 21.2777 11.1737C21.1941 10.8516 21.0687 10.5634 20.9015 10.309C21.4067 10.2376 21.8665 10.1074 22.2809 9.91869C22.3054 9.91987 22.33 9.92065 22.3546 9.921ZM20.5778 8.9572C20.4913 8.82829 20.4177 8.68885 20.3593 8.54038L17.4735 1.20378C16.8141 -0.401261 14.5127 -0.401261 13.8566 1.20378L10.9708 8.54039C10.6473 9.36273 9.85906 9.90815 8.97548 9.921L1.84325 10.0247C0.0647372 10.1267 -0.657992 12.3336 0.720856 13.442L6.62054 18.4938C7.27061 19.0504 7.53446 19.9362 7.29496 20.7578L5.31369 27.5549C4.84741 29.2289 6.68254 30.6103 8.19461 29.7223L12.9761 27.1393C12.431 27.1259 11.8967 27.0852 11.3732 27.0171C10.738 26.9493 10.1696 26.8221 9.66811 26.6356C9.18334 26.4491 8.79886 26.1864 8.51468 25.8473C8.2305 25.5252 8.08841 25.1183 8.08841 24.6266C8.10513 24.0163 8.32244 23.5331 8.74035 23.177C9.14155 22.821 9.67647 22.643 10.3451 22.643C10.8132 22.643 11.2144 22.7193 11.5487 22.8719C11.8998 23.0414 12.1839 23.2533 12.4012 23.5076C12.2341 23.6433 12.1087 23.7874 12.0251 23.94C11.9583 24.0926 11.9248 24.2706 11.9248 24.474C11.9248 24.8979 12.1171 25.1946 12.5015 25.3641C12.886 25.5506 13.4377 25.6438 14.1565 25.6438C14.6747 25.6438 15.1762 25.5591 15.6609 25.3895C16.1457 25.2369 16.5469 24.9826 16.8645 24.6266C17.1821 24.2706 17.3409 23.8128 17.3409 23.2533C17.3577 22.7278 17.1236 22.3972 16.6389 22.2615C16.1708 22.1429 15.4018 22.0835 14.332 22.0835C13.4293 22.0835 12.6854 22.0157 12.1004 21.8801C11.532 21.7275 11.1057 21.4986 10.8215 21.1934C10.5541 20.8883 10.412 20.4983 10.3953 20.0236C10.412 19.4472 10.5959 18.9131 10.9469 18.4215C11.3147 17.9298 11.7577 17.5144 12.2759 17.1754C11.6406 16.9041 11.1392 16.5057 10.7714 15.9801C10.4204 15.4376 10.2448 14.7594 10.2448 13.9457C10.2448 12.7589 10.5374 11.7756 11.1224 10.9957C11.7075 10.1988 12.4848 9.60546 13.4544 9.21552C14.4406 8.80863 15.5105 8.60518 16.6639 8.60518C17.2323 8.60518 17.692 8.63909 18.043 8.7069C18.4108 8.77472 18.7284 8.85101 18.9959 8.93578C19.28 9.0036 19.5809 9.0375 19.8986 9.0375C20.1514 9.0375 20.3778 9.01074 20.5778 8.9572ZM16.8144 15.6495C16.4633 16.0903 15.9786 16.3107 15.36 16.3107C14.7917 16.3107 14.3738 16.1327 14.1063 15.7767C13.8389 15.4206 13.7051 14.9459 13.7051 14.3525C13.7051 13.8439 13.7553 13.3353 13.8556 12.8267C13.9559 12.3011 14.1063 11.8179 14.3069 11.3771C14.5242 10.9363 14.7917 10.5888 15.1093 10.3345C15.4436 10.0632 15.8365 9.92758 16.2878 9.92758C16.8729 9.92758 17.2824 10.1395 17.5165 10.5634C17.7672 10.9872 17.9009 11.4958 17.9177 12.0892C17.9009 12.7165 17.8006 13.3607 17.6168 14.0219C17.4496 14.6662 17.1821 15.2087 16.8144 15.6495Z" fill="#18BA33"/>
</svg>
