<svg width="27" height="24" viewBox="0 0 27 24" fill="none" xmlns="http://www.w3.org/2000/svg">
<path d="M18.1681 19.4103L16.9971 17.0059L15.8261 19.4103L13.25 20.5032L15.8261 21.5961L16.9971 24.0005L18.1681 21.5961L20.7442 20.5032L18.1681 19.4103Z" fill="white"/>
<path d="M21.8671 13.2129L21.2426 12.0107L20.6181 13.2129L19.2441 13.7594L20.6181 14.3058L21.2426 15.508L21.8671 14.3058L23.2411 13.7594L21.8671 13.2129Z" fill="white"/>
<path d="M24.5209 17.0515L23.7403 15.5059L22.9596 17.0515L21.2422 17.7541L22.9596 18.4567L23.7403 20.0024L24.5209 18.4567L26.2383 17.7541L24.5209 17.0515Z" fill="white"/>
<path d="M11.3006 0C7.66629 0 4.70163 2.97481 4.70163 6.60905C4.70163 8.83065 5.81328 10.799 7.50506 11.9963C3.55907 13.5774 0.759766 17.4356 0.759766 21.9374C0.765804 22.2094 0.878118 22.4683 1.07266 22.6585C1.2672 22.8488 1.52851 22.9554 1.80063 22.9554C2.07275 22.9554 2.33406 22.8488 2.5286 22.6585C2.72314 22.4683 2.83546 22.2094 2.8415 21.9374C2.8415 17.1598 6.69368 13.3096 11.4713 13.3096C13.1391 13.3096 14.6871 13.785 16.0048 14.6005C16.1214 14.673 16.2513 14.7217 16.3868 14.7439C16.5223 14.7661 16.6609 14.7614 16.7946 14.73C16.9283 14.6985 17.0545 14.6411 17.166 14.5608C17.2774 14.4805 17.3719 14.3792 17.4441 14.2623C17.5163 14.1455 17.5647 14.0156 17.5866 13.88C17.6085 13.7444 17.6035 13.6058 17.5718 13.4721C17.54 13.3385 17.4823 13.2124 17.4018 13.1012C17.3212 12.9899 17.2196 12.8956 17.1026 12.8237C16.5088 12.4563 15.8643 12.1686 15.1997 11.9211C16.8369 10.7177 17.9096 8.78631 17.9096 6.60905C17.9096 2.97481 14.9348 0 11.3006 0ZM11.3006 2.08368C13.8098 2.08368 15.8279 4.09984 15.8279 6.60905C15.8279 9.11826 13.8098 11.1263 11.3006 11.1263C8.79135 11.1263 6.78336 9.11826 6.78336 6.60905C6.78337 4.09984 8.79135 2.08368 11.3006 2.08368Z" fill="white"/>
</svg>
