<svg width="47" height="48" viewBox="0 0 47 48" fill="none" xmlns="http://www.w3.org/2000/svg">
<g clip-path="url(#clip0_3517_50690)">
<circle cx="23.324" cy="23.4743" r="23.324" fill="#E8FCEC"/>
<path d="M17.8611 20.6771C17.8611 22.1744 16.6437 23.3907 15.1464 23.3907C13.6491 23.3907 12.4375 22.1738 12.4375 20.6771C12.4375 19.1798 13.6491 17.9629 15.1464 17.9629C16.6437 17.9629 17.8611 19.1798 17.8611 20.6771Z" fill="#17B532"/>
<path d="M22.6785 22.5699C24.9431 22.5699 26.7789 20.7341 26.7789 18.4695C26.7789 16.2049 24.9431 14.3691 22.6785 14.3691C20.4139 14.3691 18.5781 16.2049 18.5781 18.4695C18.5781 20.7341 20.4139 22.5699 22.6785 22.5699Z" fill="#17B532"/>
<path d="M30.2167 17.9629C31.714 17.9629 32.9309 19.1798 32.9309 20.6771C32.9309 22.1744 31.714 23.3907 30.2167 23.3907C28.7194 23.3907 27.5078 22.1738 27.5078 20.6771C27.5078 19.1798 28.7194 17.9629 30.2167 17.9629Z" fill="#17B532"/>
<path d="M35.9101 27.1459V28.9347C35.9101 29.1569 35.7725 29.358 35.5662 29.431C34.445 29.8389 33.2858 30.1135 32.1007 30.2574V30.2468V27.7395C32.1065 26.5068 31.6467 25.3221 30.8203 24.4058C31.3071 24.3275 31.7727 24.1524 32.1912 23.8926C33.8308 24.2836 35.8995 25.1835 35.9101 27.1459Z" fill="#17B532"/>
<path d="M31.0387 27.7377V30.245C31.0387 30.69 30.7583 31.0921 30.3408 31.2397C25.3892 33.0174 19.9704 33.0174 15.0187 31.2397C14.6007 31.0921 14.3203 30.69 14.3203 30.245V27.7377C14.3256 24.7701 17.4683 23.4156 19.9391 22.8379C21.6163 23.8961 23.7485 23.8908 25.4257 22.8379C27.8954 23.4252 31.0276 24.7632 31.0387 27.7377Z" fill="#17B532"/>
<path d="M14.5429 24.4058C13.7175 25.3211 13.2625 26.5068 13.2625 27.7395V30.2468V30.2579C12.0827 30.1146 10.9187 29.8405 9.80232 29.432C9.59069 29.358 9.45312 29.1569 9.45312 28.9347V27.1459C9.45842 25.1835 11.5377 24.2836 13.1726 23.8926C13.5905 24.1513 14.0561 24.3259 14.5429 24.4058Z" fill="#17B532"/>
</g>
<defs>
<clipPath id="clip0_3517_50690">
<rect width="47" height="47" fill="white" transform="translate(0 0.150391)"/>
</clipPath>
</defs>
</svg>
