<svg width="20" height="17" viewBox="0 0 20 17" fill="none" xmlns="http://www.w3.org/2000/svg">
<path fill-rule="evenodd" clip-rule="evenodd" d="M10.2882 0.15521L10.002 0.150391C5.86108 0.150391 2.12926 3.07347 0.0609149 7.85623C-0.020305 8.04403 -0.020305 8.25675 0.0609149 8.44456L0.204239 8.76718C2.24638 13.2435 5.77544 16.0147 9.71179 16.1456L9.998 16.1504C14.1389 16.1504 17.8707 13.2273 19.9391 8.44456C20.0213 8.25438 20.0202 8.03879 19.9361 7.84943L19.7968 7.53602C17.7497 3.0513 14.2192 0.285856 10.2882 0.15521ZM10.0093 1.63983L10.2483 1.64498L10.5153 1.65886C13.7125 1.88525 16.6529 4.25594 18.4293 8.14952L18.42 8.17354C16.599 12.1509 13.5573 14.5357 10.2592 14.6554L10.0043 14.6592L9.74724 14.6558L9.48092 14.6419C6.38303 14.4225 3.52669 12.1848 1.73946 8.51011L1.57031 8.14952L1.72689 7.8166C3.61149 3.92356 6.69179 1.64068 10.0093 1.63983ZM9.99889 4.26385C7.83849 4.26385 6.08789 6.00352 6.08789 8.15059C6.08789 10.2969 7.83868 12.0363 9.99889 12.0363C12.1592 12.0363 13.9109 10.2967 13.9109 8.15059C13.9109 6.00364 12.1594 4.26385 9.99889 4.26385ZM9.99889 5.75417C11.3311 5.75417 12.4109 6.82679 12.4109 8.15059C12.4109 9.47351 11.3309 10.546 9.99889 10.546C8.6671 10.546 7.58789 9.47378 7.58789 8.15059C7.58789 6.82653 8.66699 5.75417 9.99889 5.75417Z" fill="#626F63"/>
</svg>
